<?xml version="1.0" standalone="no"?>
<!DOCTYPE svg PUBLIC "-//W3C//DTD SVG 20010904//EN"
 "http://www.w3.org/TR/2001/REC-SVG-20010904/DTD/svg10.dtd">
<svg version="1.0" xmlns="http://www.w3.org/2000/svg"
 width="1500.000000pt" height="1500.000000pt" viewBox="0 0 1500.000000 1500.000000"
 preserveAspectRatio="xMidYMid meet">

<g transform="translate(0.000000,1500.000000) scale(0.100000,-0.100000)"
fill="#000000" stroke="none">
<path d="M0 7500 l0 -7500 7500 0 7500 0 0 7500 0 7500 -7500 0 -7500 0 0
-7500z m13660 0 l0 -6280 -6165 0 -6165 0 0 6280 0 6280 6165 0 6165 0 0
-6280z"/>
<path d="M1620 7500 l0 -5980 5875 0 5875 0 0 5980 0 5980 -5875 0 -5875 0 0
-5980z m1875 2400 l0 -205 -30 0 -30 0 -3 159 c-1 97 -7 165 -13 173 -9 10
-93 13 -418 13 -223 0 -412 -4 -419 -8 -9 -7 -12 -88 -10 -373 l3 -364 310 0
310 0 2 60 c5 120 20 148 64 125 18 -10 19 -24 19 -228 0 -225 -3 -242 -41
-242 -27 0 -34 18 -39 110 l-5 85 -310 0 -310 0 0 -380 0 -380 435 0 435 0 6
165 c3 91 6 166 7 166 10 8 43 9 56 2 14 -8 16 -33 16 -201 0 -137 -3 -196
-12 -205 -17 -17 -1249 -17 -1266 0 -16 16 -15 45 1 55 6 4 62 10 122 13 l110
5 3 784 c1 560 -1 788 -9 797 -8 9 -45 14 -122 16 -99 3 -112 5 -115 21 -10
49 -36 47 630 45 l623 -3 0 -205z m6342 198 c4 -7 10 -382 13 -833 l5 -820
115 -6 c63 -4 116 -7 116 -8 8 -7 9 -42 2 -55 -8 -14 -39 -16 -276 -16 -277 0
-292 2 -292 41 0 28 19 34 135 39 l110 5 3 784 c1 560 -1 788 -9 797 -8 9 -45
14 -122 16 -99 3 -112 5 -115 21 -9 45 -1 47 157 47 109 0 152 -3 158 -12z
m-5346 -488 c81 -25 150 -65 217 -125 69 -62 80 -57 84 42 l3 78 30 0 30 0 0
-230 0 -230 -30 0 -30 0 -5 83 -5 84 -71 68 c-135 128 -254 180 -414 180 -246
-1 -410 -104 -410 -260 0 -87 41 -146 136 -193 69 -35 134 -50 382 -92 343
-56 448 -107 491 -234 18 -55 13 -170 -9 -219 -43 -95 -164 -179 -298 -208
-91 -19 -288 -18 -366 2 -85 22 -190 75 -264 135 -42 33 -64 46 -67 37 -2 -7
-6 -44 -7 -82 -2 -53 -7 -71 -20 -80 -13 -8 -23 -8 -35 0 -16 10 -18 34 -21
227 -2 186 0 217 14 231 19 20 29 20 48 0 12 -11 16 -35 16 -85 0 -64 3 -74
33 -111 76 -94 237 -188 360 -209 83 -14 235 -7 313 15 191 51 288 198 223
334 -45 92 -126 125 -434 177 -237 40 -334 64 -405 100 -115 58 -163 132 -164
255 0 91 19 134 92 202 54 51 123 89 191 108 126 34 285 34 392 0z m1401 4
c79 -24 159 -67 227 -124 33 -27 65 -50 71 -50 6 0 10 27 10 66 0 36 5 74 10
85 15 27 58 25 65 -3 3 -13 4 -117 3 -233 l-3 -210 -24 -3 c-37 -6 -51 22 -51
99 0 67 0 68 -50 122 -63 69 -167 141 -245 168 -76 27 -205 36 -276 19 -172
-41 -307 -187 -355 -386 -23 -93 -23 -277 -1 -361 70 -262 280 -410 552 -389
139 10 232 46 350 136 36 27 70 50 74 50 17 0 43 -39 37 -57 -15 -47 -196
-154 -311 -183 -97 -25 -282 -27 -368 -5 -140 36 -277 144 -344 270 -72 138
-101 331 -73 502 58 368 371 585 702 487z m3055 0 c121 -31 242 -119 317 -227
57 -82 87 -175 93 -287 8 -148 64 -134 -566 -140 l-526 -5 -3 -26 c-5 -46 27
-173 64 -247 93 -190 272 -285 503 -269 145 11 228 42 347 133 39 30 76 54 82
54 11 0 42 -38 42 -52 0 -11 -109 -92 -171 -126 -103 -59 -162 -74 -308 -79
-152 -6 -213 3 -309 49 -77 36 -184 135 -230 211 -129 215 -131 542 -5 756 88
148 228 245 392 271 71 11 203 3 278 -16z m2036 -4 c116 -36 204 -116 259
-235 23 -49 23 -56 25 -470 2 -231 5 -430 8 -442 5 -22 10 -23 100 -23 118 0
147 -10 143 -48 l-3 -27 -155 0 -155 0 -3 80 c-4 143 -13 151 -82 79 -63 -65
-181 -140 -257 -164 -80 -25 -228 -27 -322 -5 -119 28 -209 96 -263 197 -20
37 -23 57 -23 148 0 91 3 112 25 155 46 95 154 174 287 211 45 13 124 18 341
21 l282 5 6 25 c4 14 4 61 1 105 -13 200 -151 327 -364 336 -149 7 -284 -27
-398 -99 -54 -34 -88 -35 -93 -2 -2 16 8 30 40 54 156 115 412 157 601 99z
m-4215 -13 c7 -9 12 -159 14 -452 4 -492 4 -495 77 -591 38 -51 120 -107 181
-125 60 -17 172 -22 232 -10 126 27 265 129 364 267 l44 62 0 385 c0 298 -3
388 -12 394 -7 4 -62 10 -123 13 l-110 5 0 30 0 30 155 0 155 0 5 -580 c3
-319 7 -581 8 -582 1 -2 46 -3 100 -3 131 0 144 -4 140 -44 l-3 -31 -144 -3
c-97 -2 -148 1 -157 9 -10 8 -14 37 -14 101 0 118 -9 121 -104 30 -53 -50 -99
-83 -162 -114 -85 -42 -91 -43 -199 -47 -266 -8 -425 96 -492 322 -13 42 -17
127 -20 452 -3 256 -8 404 -15 412 -7 9 -44 13 -119 13 -100 0 -108 2 -114 20
-14 43 8 50 160 50 104 0 145 -3 153 -13z m3547 -2278 c108 -27 164 -150 116
-254 -22 -48 -44 -69 -94 -90 -122 -51 -250 36 -249 171 1 82 43 142 119 169
47 17 54 18 108 4z m-475 -764 l0 -675 -155 0 -155 0 0 675 0 675 155 0 155 0
0 -675z m-2234 590 c299 -101 474 -383 435 -705 -15 -116 -44 -198 -103 -286
-123 -183 -317 -284 -548 -284 -162 0 -281 39 -407 135 -159 119 -244 298
-245 515 -1 124 15 196 64 300 80 167 259 307 443 345 106 22 262 13 361 -20z
m1416 -265 c70 -26 145 -91 181 -157 52 -97 57 -137 57 -505 l0 -338 -155 0
-155 0 0 308 c0 277 -2 311 -19 348 -34 74 -110 112 -204 100 -64 -7 -113 -38
-140 -90 -21 -39 -22 -53 -25 -353 l-3 -313 -155 0 -154 0 0 510 0 510 155 0
155 0 0 -72 0 -72 44 47 c24 25 59 54 78 63 90 48 236 54 340 14z m2438 5
c100 -35 181 -120 223 -233 20 -54 22 -79 25 -414 l3 -358 -155 0 -155 0 -3
313 c-3 283 -5 316 -22 350 -70 140 -314 120 -355 -28 -7 -25 -11 -152 -11
-337 l0 -298 -155 0 -155 0 0 510 0 510 155 0 155 0 0 -72 0 -72 34 40 c39 46
117 91 178 104 59 12 184 5 238 -15z m1072 11 c168 -36 310 -156 363 -306 21
-60 37 -197 30 -252 l-7 -48 -349 0 c-233 0 -349 -3 -349 -10 0 -52 66 -123
130 -140 68 -18 166 7 193 50 11 19 24 20 179 20 112 0 168 -4 168 -11 0 -27
-56 -124 -100 -171 -153 -168 -430 -209 -642 -96 -70 37 -156 127 -192 200
-74 151 -72 380 5 529 31 61 134 161 200 192 108 53 246 69 371 43z m-2112
-506 l0 -510 -155 0 -155 0 0 510 0 510 155 0 155 0 0 -510z m1854 -2741 c19
-15 26 -30 26 -55 0 -46 -631 -1678 -661 -1710 -13 -14 -34 -24 -50 -24 -39 0
-82 40 -82 76 0 23 510 1363 624 1640 39 94 86 118 143 73z m-739 -314 c35
-34 34 -83 -2 -117 -16 -14 -147 -120 -293 -235 -146 -114 -267 -212 -268
-216 -2 -4 118 -103 265 -218 147 -116 280 -223 296 -237 36 -34 37 -83 2
-117 -49 -50 -56 -47 -422 241 -186 146 -344 273 -350 282 -7 9 -13 30 -13 47
0 17 6 38 13 47 6 9 164 136 350 282 366 288 373 291 422 241z m1167 -236
c183 -144 341 -270 351 -281 9 -11 17 -35 17 -53 0 -18 -8 -42 -17 -53 -10
-11 -168 -137 -351 -281 -361 -282 -368 -286 -417 -236 -35 34 -34 83 3 117
15 14 148 121 295 236 147 116 268 214 268 217 0 3 -121 101 -268 217 -147
115 -280 222 -295 236 -37 34 -38 83 -3 117 49 50 56 46 417 -236z"/>
<path d="M8631 9544 c-192 -51 -355 -249 -363 -441 l-3 -58 505 0 505 0 3 54
c9 149 -110 332 -263 406 -111 54 -269 70 -384 39z"/>
<path d="M10584 8995 c-113 -25 -192 -79 -234 -162 -34 -65 -35 -187 -3 -249
63 -119 206 -183 383 -171 96 7 158 28 242 84 75 49 131 108 189 197 l39 59 0
117 c0 77 -4 120 -12 128 -18 18 -521 15 -604 -3z"/>
<path d="M7290 6881 c-170 -52 -267 -238 -230 -440 16 -88 49 -149 110 -204
63 -57 121 -77 221 -77 145 0 242 59 300 184 52 111 49 266 -7 377 -31 63
-110 131 -174 152 -54 18 -174 22 -220 8z"/>
<path d="M12317 6619 c-37 -19 -79 -73 -92 -116 l-6 -23 190 0 c166 0 191 2
191 15 0 42 -62 115 -113 134 -45 17 -128 12 -170 -10z"/>
</g>
</svg>
